<?xml version="1.0" encoding="utf-8"?>

<!DOCTYPE svg PUBLIC "-//W3C//DTD SVG 1.1//EN" "http://www.w3.org/Graphics/SVG/1.1/DTD/svg11.dtd">
<!-- Uploaded to: SVG Repo, www.svgrepo.com, Generator: SVG Repo Mixer Tools -->
<svg height="800px" width="800px" version="1.1" id="_x32_" xmlns="http://www.w3.org/2000/svg" xmlns:xlink="http://www.w3.org/1999/xlink" 
	 viewBox="0 0 512 512"  xml:space="preserve">
<style type="text/css">
	.st0{fill:#000000;}
</style>
<g>
	<path class="st0" d="M263.621,160.53c-5.626,0-9.207,2.34-10.772,7.19c-0.938,2.806-1.256,5.936-1.256,29.207
		c0,23.264,0.318,26.394,1.256,29.199c1.565,4.85,5.146,7.191,10.772,7.191c5.47,0,9.221-2.34,10.786-7.191
		c0.93-2.805,1.241-5.935,1.241-29.199c0-23.27-0.31-26.401-1.241-29.207C272.842,162.871,269.091,160.53,263.621,160.53z"/>
	<path class="st0" d="M184.39,295.46c-7.282,0-11.97,3.645-13.923,9.757c-1.044,3.123-1.432,7.423-1.432,19.006
		c0,11.582,0.388,15.883,1.432,18.998c1.953,6.119,6.641,9.764,13.923,9.764c7.289,0,11.978-3.645,13.93-9.764
		c1.043-3.116,1.438-7.416,1.438-18.998c0-11.583-0.395-15.883-1.438-19.006C196.368,299.105,191.679,295.46,184.39,295.46z"/>
	<path class="st0" d="M512,255.996l-63.299-51.631l29.002-76.362l-80.641-13.07L384,34.3l-76.361,29.002L256,0.004l-51.638,63.299
		L128.007,34.3l-13.07,80.634l-80.633,13.07l28.995,76.362L0,255.996l63.299,51.632l-28.995,76.368l80.633,13.07l13.07,80.633
		l76.355-29.002L256,511.996l51.638-63.298L384,477.7l13.063-80.633l80.641-13.07l-29.002-76.368L512,255.996z M150.009,226.6
		l16.877-3.278c0.923-0.162,1.55,0.31,1.868,1.255c1.874,4.991,5.618,8.741,12.336,8.741c5.309,0,9.532-2.503,11.097-7.5
		c0.93-2.496,1.24-5.464,1.24-10.307c0-5.153-0.31-7.959-1.24-10.462c-1.728-5.315-5.936-7.346-11.097-7.346
		c-5.774,0-9.206,2.975-10.771,6.091c-0.466,1.1-0.945,1.565-2.03,1.565h-16.715c-0.938,0-1.565-0.627-1.565-1.565v-58.413
		c0-0.93,0.627-1.558,1.565-1.558h59.351c0.937,0,1.565,0.627,1.565,1.558v15.467c0,0.93-0.628,1.558-1.565,1.558h-40.768
		c-0.62,0-0.93,0.317-0.93,0.938v20.937h0.465c2.658-2.348,7.967-5.005,15.933-5.005c13.592,0,23.426,6.09,27.331,17.962
		c1.402,4.37,2.192,9.213,2.192,18.117c0,6.711-0.944,12.182-2.355,16.56c-4.208,12.964-16.235,19.831-31.392,19.831
		c-18.11,0-30.764-9.524-32.64-23.426C148.606,227.537,149.072,226.754,150.009,226.6z M216.67,348.431
		c-4.554,14.318-16.785,21.473-32.28,21.473c-15.488,0-27.719-7.155-32.273-21.473c-1.953-6.112-2.475-11.06-2.475-24.208
		c0-13.148,0.522-18.096,2.475-24.216c4.554-14.311,16.785-21.473,32.273-21.473c15.495,0,27.726,7.162,32.28,21.473
		c1.953,6.119,2.474,11.068,2.474,24.216C219.144,337.37,218.623,342.319,216.67,348.431z M292.933,295.2
		c0,0.782-0.522,1.304-1.297,1.304h-38.138c-0.521,0-0.782,0.26-0.782,0.782v18.611c0,0.521,0.261,0.775,0.782,0.775h31.758
		c0.776,0,1.297,0.522,1.297,1.297v13.803c0,0.782-0.521,1.304-1.297,1.304h-31.758c-0.521,0-0.782,0.254-0.782,0.775v33.316
		c0,0.782-0.521,1.304-1.297,1.304h-16.531c-0.782,0-1.304-0.522-1.304-1.304v-85.9c0-0.775,0.522-1.297,1.304-1.297h56.749
		c0.776,0,1.297,0.522,1.297,1.297V295.2z M295.64,230.032c-4.371,13.592-15.312,21.713-32.019,21.713
		c-16.708,0-27.641-8.121-32.02-21.713c-1.551-4.681-2.34-9.531-2.34-33.105c0-23.588,0.79-28.431,2.34-33.119
		c4.378-13.584,15.312-21.706,32.02-21.706c16.707,0,27.648,8.121,32.019,21.706c1.565,4.688,2.34,9.531,2.34,33.119
		C297.98,220.501,297.205,225.352,295.64,230.032z M360.334,181.003h2.474c1.361,0,2.623,0.698,3.37,1.84
		c0.733,1.149,0.832,2.594,0.268,3.821l-29.256,63.63c-0.649,1.417-2.066,2.32-3.624,2.32H331.1c-1.361,0-2.629-0.691-3.37-1.84
		c-0.732-1.142-0.824-2.587-0.275-3.814l29.256-63.63C357.367,181.912,358.776,181.003,360.334,181.003z M309.852,197.302
		c1.72-5.041,6.563-8.284,13.027-8.284c6.472,0,11.322,3.243,13.035,8.284c0.705,2.03,0.917,0.62,0.917,6.986
		c0,6.359-0.212,4.956-0.917,6.972c-1.713,5.055-6.563,8.29-13.035,8.29c-6.464,0-11.308-3.236-13.027-8.29
		c-0.705-2.016-0.91-0.614-0.91-6.972C308.943,197.922,309.147,199.332,309.852,197.302z M368.117,295.2
		c0,0.782-0.521,1.304-1.296,1.304h-38.138c-0.522,0-0.782,0.26-0.782,0.782v18.611c0,0.521,0.26,0.775,0.782,0.775h31.758
		c0.775,0,1.297,0.522,1.297,1.297v13.803c0,0.782-0.522,1.304-1.297,1.304h-31.758c-0.522,0-0.782,0.254-0.782,0.775v33.316
		c0,0.782-0.515,1.304-1.298,1.304H310.07c-0.782,0-1.304-0.522-1.304-1.304v-85.9c0-0.775,0.521-1.297,1.304-1.297h56.75
		c0.775,0,1.296,0.522,1.296,1.297V295.2z M384.05,236.3c-1.713,5.055-6.571,8.297-13.035,8.297c-6.472,0-11.315-3.242-13.035-8.297
		c-0.698-2.009-0.909-0.606-0.909-6.972c0-6.365,0.211-4.949,0.909-6.979c1.72-5.04,6.563-8.276,13.035-8.276
		c6.464,0,11.322,3.236,13.035,8.276c0.704,2.03,0.91,0.614,0.91,6.979C384.959,235.693,384.754,234.291,384.05,236.3z"/>
	<path class="st0" d="M319.348,209.244c0.508,1.515,1.818,2.319,3.532,2.319c1.727,0,3.032-0.804,3.539-2.319
		c0.31-0.811,0.402,1.198,0.402-4.956c0-6.168-0.092-4.159-0.402-4.956c-0.508-1.523-1.812-2.333-3.539-2.333
		c-1.713,0-3.024,0.81-3.532,2.333c-0.303,0.797-0.402-1.213-0.402,4.956C318.946,210.442,319.045,208.433,319.348,209.244z"/>
	<path class="st0" d="M374.547,224.378c-0.501-1.53-1.812-2.333-3.532-2.333c-1.72,0-3.031,0.803-3.538,2.333
		c-0.303,0.804-0.395-1.219-0.395,4.949c0,6.162,0.092,4.152,0.395,4.963c0.507,1.509,1.818,2.319,3.538,2.319
		c1.72,0,3.031-0.81,3.532-2.319c0.31-0.811,0.408,1.198,0.408-4.963C374.955,223.159,374.856,225.183,374.547,224.378z"/>
</g>
</svg>