<?xml version="1.0" encoding="iso-8859-1"?>
<!-- Uploaded to: SVG Repo, www.svgrepo.com, Generator: SVG Repo Mixer Tools -->
<!DOCTYPE svg PUBLIC "-//W3C//DTD SVG 1.1//EN" "http://www.w3.org/Graphics/SVG/1.1/DTD/svg11.dtd">
<svg fill="#000000" version="1.1" id="Capa_1" xmlns="http://www.w3.org/2000/svg" xmlns:xlink="http://www.w3.org/1999/xlink" 
	 width="800px" height="800px" viewBox="0 0 577.554 577.554"
	 xml:space="preserve">
<g>
	<path d="M280.366,61.207l-59.761,116.12c0,0,32.697,59.752,29.876,83.432c-2.812,23.679-29.876,67.646-29.876,67.646
		s70.476,93.574,14.661,95.824c10.706-23.697-3.491-78.771-19.269-50.287c-15.786,28.465-64.172,115.664-64.172,115.664
		s-20.277,86.789-52.975,87.949c12.42-29.34,0-80.038,0-80.038s-19.162,15.751-29.313,47.341
		c-22.545-43.984,37.197-101.468,37.197-101.468s-41.707,22.536-62.011,49.608c-3.402-51.858,50.725-76.662,50.725-76.662
		s-16.251-68.342,19.17-97.719c6-29.375-27.045-49.957,25.93-126.611c15.545-41.037,66.52-220.99,204.087-187.988
		c38.34,12.089,123.986,151.889,130.754,172.184c6.768,20.287-15.786,28.18-15.786,28.18s24.804,15.786,32.697,40.582
		c7.911,24.795-4.5,45.814-4.5,45.814s49.608,17.322,42.858,69.182c-13.536-15.77-53.002-41.359-53.002-41.359
		s65.396,58.252,28.197,104.486c11.269,10.143,62.021,154.451-13.535,154.451c40.607-30.447-25.93-173.613-25.93-173.613
		s-23.68,50.698-10.144,72.146c-27.036,6.732-21.429-70.271-36.072-84.556c-14.661-14.305-90.2-74.414-41.716-155.568
		c13.536-33.832-22.537-128.531-39.447-155.577C322.082,53.305,280.366,61.207,280.366,61.207z"/>
</g>
</svg>