<?xml version="1.0" encoding="iso-8859-1"?>
<!-- Uploaded to: SVG Repo, www.svgrepo.com, Generator: SVG Repo Mixer Tools -->
<!DOCTYPE svg PUBLIC "-//W3C//DTD SVG 1.1//EN" "http://www.w3.org/Graphics/SVG/1.1/DTD/svg11.dtd">
<svg fill="#000000" version="1.1" id="Capa_1" xmlns="http://www.w3.org/2000/svg" xmlns:xlink="http://www.w3.org/1999/xlink" 
	 width="800px" height="800px" viewBox="0 0 31.615 31.615"
	 xml:space="preserve">
<g>
	<g>
		<path d="M16.013,4.833c0.474-0.094,0.951-0.186,1.422-0.276c0.945-0.183,1.896-0.367,2.754-0.558
			c-0.528-1.031-1.658-4.202-5.17-3.988C13.15,0.124,10.1,1.448,9.385,3.202C8.913,4.358,9.028,5.537,9.194,6.25
			C10.729,5.923,13.96,5.242,16.013,4.833z"/>
		<path d="M20.368,19.501c-0.335-1.303,0.326-4.624,0.326-4.624s0.896,0.129,0.129,2.67c-0.228,0.341,1.034-0.635,0.726-2.72
			c-0.31-2.085-1.392-1.693-1.44-1.97c-0.05-0.277,0.292-0.912,0.268-1.768c-0.022-0.854,0.302-0.74,0.448-1.75
			c0.027-0.181,0.615,0.854,0.188,3.143c1.271-0.903-0.047-4.199-0.026-4.423c0.041-0.478,0.055-0.991,0.004-1.466
			c1.034-0.42,1.687-0.932,1.032-1.308c-0.772-0.446-1.064-0.468-1.295-0.607c-0.943,0.22-2.024,0.429-3.141,0.644
			c-0.472,0.092-0.947,0.183-1.418,0.277c-2.029,0.403-5.204,1.074-6.758,1.403C9.235,7.137,8.144,7.094,7.757,7.76
			c0.6,0.912,1.656,1.212,2.877,1.195c-0.109,1.241-0.248,2.268-0.687,2.6c-1.222,0.928-1.774,7.49-1.106,8.336
			c0.104-1.254,0.889-1.499,1.23-1.77c0.343-0.269-2.42,5.815-3.12,4.961c0.333,1.221,2.511-1.258,2.41,0
			c-1.515,3.615-0.504,5.699-0.131,5.928c0.374,0.229,0.289,1.17-1.303,1.693c1.188,0.879,2.02-0.912,2.02-0.912
			c0.684-0.213,1.465,0.08,1.368,1.823c1.21-0.792-0.02-4.396-0.127-4.687c0.178,0.52,1.496,0.376,2.177-0.599
			c-0.902,0.465-1.949,0.83-2.376-0.447c-0.261-0.554,0.196-1.107,0.196-1.107s0.406,1.377,1.367,0.781
			c-1.287-0.081-0.717-3.126-0.717-3.126s0.359,3.501,1.433,2.735c-1.002-0.13-0.293-3.027-0.391-4.087
			c-0.099-1.06,2.054-2.083,3.127-3.825c1.073-1.742-1.434-4.543-1.498-5.244c-0.066-0.7,0.764-0.944,1.301-3.241
			c0.078-0.325,0.134-0.648,0.178-0.964c0.806-0.243,1.489-0.436,1.926-0.467c0.53-0.036,1.187-0.16,1.826-0.332
			c-0.026,0.697-0.04,1.563,0.044,1.748c0.146,0.318,0.484,1.07,0.484,1.299c0,0.227-0.771,0.415-0.771,0.415
			c0.197,0.591,0.383,1.076,0.351,1.152c-0.049,0.113-0.274,0.103-0.324,0.195c-0.051,0.092,0.373,0.175,0.242,0.337
			c-0.129,0.163-0.215,0.16-0.342,0.269c-0.125,0.109-0.016,0.79-0.365,0.917c-0.351,0.125-1.267-0.085-1.551,0.134
			c-0.287,0.22,0.184,3.831-0.135,4.987c-0.318,1.155,1.831,2.399,1.979,3.793c0.146,1.392,0.131,1.718,0.439,2.246
			s1.172,2.076,2.012,1.906c-0.67-0.759-0.588-1.563-0.588-1.563s1.67,2.263,2.346,2.279c-0.912-1.377-0.26-1.052,0-0.849
			c0.261,0.203,1.002,0.105,1.106-0.749C23.558,26.273,20.702,20.804,20.368,19.501z"/>
	</g>
</g>
</svg>