<?xml version="1.0" encoding="iso-8859-1"?>
<!-- Uploaded to: SVG Repo, www.svgrepo.com, Generator: SVG Repo Mixer Tools -->
<!DOCTYPE svg PUBLIC "-//W3C//DTD SVG 1.1//EN" "http://www.w3.org/Graphics/SVG/1.1/DTD/svg11.dtd">
<svg fill="#000000" version="1.1" id="Capa_1" xmlns="http://www.w3.org/2000/svg" xmlns:xlink="http://www.w3.org/1999/xlink" 
	 width="800px" height="800px" viewBox="0 0 28.983 28.983"
	 xml:space="preserve">
<g>
	<path d="M13.358,0.418c-5.519-1.554-5.493,6.27-5.493,6.27l0.804,4.448c0,0-3.322,12.567-2.224,16.317
		c0.294,0.59,0.491-0.307,0.491-0.307l0.313,1.432c0,0,0.135,0.321,1.983-0.08c2.679-1.822,0.288-16.041-0.044-17.144
		C8.857,10.251,9.072,8.67,9.072,8.67s2.303-0.455,2.719-1.165s0.395-1.53,0.496-3.201c0.295,3.885,1.742,3.67,1.742,3.67
		s0.602-0.924,1.191-0.549c0.134,0.723,0.442,0.469,0.442,0.469s3.001-0.24,3.162-0.67c0.165,3.188,0.188,0.752,0.174,2.438
		c-1.151,4.528-1.271,16.103-0.146,18.085c0.908,1.599,2.192,1.444,3.242,0.67c0.126-0.094,0.028-0.778,0.16-0.898
		c0.132-0.119,0.077,0.669,0.216,0.523c1.42-1.502-2.813-18.14-2.813-18.14S20.244-2.396,13.358,0.418z"/>
</g>
</svg>