<?xml version="1.0" encoding="iso-8859-1"?>
<!-- Uploaded to: SVG Repo, www.svgrepo.com, Generator: SVG Repo Mixer Tools -->
<!DOCTYPE svg PUBLIC "-//W3C//DTD SVG 1.1//EN" "http://www.w3.org/Graphics/SVG/1.1/DTD/svg11.dtd">
<svg fill="#000000" version="1.1" id="Capa_1" xmlns="http://www.w3.org/2000/svg" xmlns:xlink="http://www.w3.org/1999/xlink" 
	 width="800px" height="800px" viewBox="0 0 31.976 31.976"
	 xml:space="preserve">
<g>
	<g>
		<path d="M8.158,20.747c0.569-0.688,0.919-1.511,0.995-2.358c0.045-0.511-0.012-1-0.161-1.449l6.427-2.407l-0.675-1.875
			l-6.548,3.01c-0.157-0.153-0.326-0.293-0.51-0.41c-1.432-0.912-3.474-0.591-4.855,0.765c-0.768,0.752-1.238,1.72-1.327,2.726
			c-0.093,1.035,0.23,1.987,0.909,2.68c0.168,0.171,0.355,0.323,0.557,0.451c0,0.001,0,0,0,0.001
			c1.095,0.698,2.546,0.672,3.788,0.016c0.055,0.062,0.117,0.123,0.191,0.17c0.423,0.271,0.985,0.146,1.255-0.277
			C8.415,21.454,8.384,21.041,8.158,20.747z M3.556,20.959c-0.132-0.084-0.255-0.184-0.364-0.296
			c-0.452-0.461-0.667-1.108-0.604-1.822c0.065-0.747,0.423-1.472,1.006-2.044c1.023-1.004,2.499-1.266,3.508-0.622
			c0.132,0.083,0.255,0.185,0.365,0.295c0.452,0.462,0.666,1.109,0.603,1.823c-0.065,0.746-0.423,1.473-1.005,2.043
			C6.038,21.339,4.564,21.604,3.556,20.959z"/>
		<path d="M11.735,31.877c0.09-0.225-0.499-2.956,0.568-3.824c0.435-0.25,0.835-0.574,1.179-0.97
			c1.118-1.278,1.409-3.021,0.793-4.356l3.777-8.049L30.055,1.202L30.487,0l-0.059,0.051l-1.19,0.698l-13.68,11.328l0.646,2.288
			l-3.3,6.896c-0.631-0.342-1.374-0.468-2.15-0.353c-0.998,0.146-1.937,0.674-2.644,1.482c-1.272,1.457-1.476,3.516-0.48,4.892
			c0.14,0.192,0.303,0.37,0.482,0.528c0.407,0.355,0.889,0.59,1.412,0.707c1.219,0.769,1.048,2.586,1.152,2.978
			C10.781,31.896,11.64,32.114,11.735,31.877z M17.11,12.999c-0.218-0.228-0.211-0.588,0.016-0.807
			c0.228-0.219,0.588-0.211,0.806,0.015c0.218,0.228,0.211,0.588-0.017,0.807C17.689,13.232,17.328,13.225,17.11,12.999z
			 M10.682,27.488c-0.709,0.104-1.368-0.071-1.854-0.495c-0.117-0.104-0.225-0.222-0.316-0.349c-0.7-0.97-0.524-2.457,0.419-3.537
			c0.536-0.614,1.24-1.014,1.98-1.123c0.709-0.104,1.368,0.072,1.854,0.496c0.119,0.104,0.225,0.222,0.316,0.348
			c0.701,0.971,0.524,2.458-0.419,3.539C12.127,26.98,11.424,27.38,10.682,27.488z"/>
	</g>
</g>
</svg>