<?xml version="1.0" encoding="iso-8859-1"?>
<!-- Uploaded to: SVG Repo, www.svgrepo.com, Generator: SVG Repo Mixer Tools -->
<!DOCTYPE svg PUBLIC "-//W3C//DTD SVG 1.1//EN" "http://www.w3.org/Graphics/SVG/1.1/DTD/svg11.dtd">
<svg fill="#ffffff" version="1.1" id="Capa_1" xmlns="http://www.w3.org/2000/svg" xmlns:xlink="http://www.w3.org/1999/xlink" 
	 width="800px" height="800px" viewBox="0 0 382.634 382.635"
	 xml:space="preserve">
<g>
	<g>
		<path d="M160.578,292.967c-0.525-0.584-1.109-1.074-1.746-1.494c-0.619-0.386-1.255-0.713-1.903-0.981
			c-0.619-0.245-1.226-0.456-1.792-0.596c-0.561-0.163-1.028-0.28-1.372-0.362c-1.805-0.455-3.275-0.828-4.402-1.133
			c-1.121-0.338-1.997-0.63-2.628-0.898c-0.647-0.292-1.068-0.596-1.284-0.957c-0.21-0.362-0.31-0.807-0.31-1.367
			c0-0.607,0.135-1.121,0.409-1.518c0.263-0.42,0.607-0.759,1.027-1.027c0.42-0.27,0.882-0.467,1.401-0.572
			c0.514-0.117,1.027-0.176,1.529-0.176c0.765,0,1.483,0.07,2.149,0.211c0.671,0.14,1.267,0.35,1.769,0.677
			c0.502,0.339,0.934,0.782,1.244,1.354c0.303,0.561,0.479,1.285,0.543,2.125h6.154c0-1.67-0.31-3.082-0.958-4.238
			c-0.63-1.18-1.495-2.148-2.569-2.896c-1.074-0.758-2.307-1.318-3.708-1.646c-1.395-0.338-2.843-0.514-4.35-0.514
			c-1.302,0-2.586,0.188-3.888,0.537c-1.291,0.351-2.452,0.889-3.48,1.623c-1.016,0.713-1.851,1.646-2.487,2.721
			c-0.642,1.109-0.957,2.383-0.957,3.877c0,1.344,0.251,2.5,0.753,3.375c0.502,0.935,1.15,1.717,1.962,2.324
			c0.817,0.607,1.734,1.121,2.762,1.506c1.016,0.408,2.084,0.736,3.158,1.004c1.04,0.293,2.09,0.549,3.112,0.783
			c1.027,0.233,1.933,0.514,2.762,0.828c0.8,0.363,1.471,0.76,1.956,1.25c0.508,0.49,0.759,1.121,0.759,1.892
			c0,0.747-0.193,1.331-0.566,1.798c-0.368,0.468-0.847,0.854-1.419,1.121c-0.578,0.281-1.174,0.444-1.821,0.537
			c-0.643,0.094-1.244,0.164-1.805,0.164c-0.858,0-1.687-0.117-2.452-0.304c-0.776-0.21-1.448-0.525-2.031-0.935
			c-0.584-0.42-1.04-0.98-1.39-1.635c-0.356-0.7-0.525-1.506-0.525-2.475h-6.166c-0.029,1.774,0.298,3.316,0.993,4.611
			c0.689,1.309,1.6,2.359,2.738,3.212c1.133,0.841,2.447,1.448,3.941,1.868c1.495,0.373,3.054,0.584,4.63,0.584
			c1.974,0,3.708-0.233,5.202-0.713c1.507-0.467,2.762-1.109,3.766-1.949c1.016-0.795,1.781-1.775,2.283-2.92
			c0.514-1.145,0.776-2.358,0.776-3.678c0-1.086-0.163-2.032-0.502-2.861C161.535,294.286,161.091,293.562,160.578,292.967z"/>
		<polygon points="184.16,288.729 172.465,288.729 172.465,277.635 166.101,277.635 166.101,306.535 172.465,306.535 
			172.465,294.076 184.16,294.076 184.16,306.535 190.506,306.535 190.506,277.635 184.16,277.635 		"/>
		<path d="M219.495,281.371c-1.203-1.377-2.698-2.463-4.461-3.258c-1.74-0.782-3.749-1.168-5.979-1.168
			c-2.254,0-4.239,0.386-5.99,1.168c-1.752,0.795-3.247,1.881-4.461,3.258c-1.215,1.379-2.148,2.99-2.803,4.834
			c-0.642,1.869-0.957,3.854-0.957,6.003c0,2.078,0.315,4.04,0.957,5.862c0.654,1.82,1.588,3.433,2.803,4.775
			c1.214,1.343,2.686,2.394,4.461,3.199c1.751,0.783,3.736,1.18,5.99,1.18c2.23,0,4.238-0.385,5.979-1.18
			c1.763-0.782,3.234-1.833,4.461-3.199c1.226-1.343,2.148-2.955,2.79-4.775c0.666-1.822,0.981-3.784,0.981-5.862
			c0-2.149-0.315-4.134-0.981-6.003C221.631,284.361,220.72,282.75,219.495,281.371z M216.482,295.734
			c-0.28,1.168-0.759,2.195-1.366,3.117c-0.619,0.923-1.437,1.646-2.441,2.207c-0.993,0.561-2.207,0.818-3.631,0.818
			c-1.437,0-2.639-0.258-3.644-0.818c-1.004-0.561-1.81-1.284-2.452-2.207c-0.607-0.922-1.051-1.949-1.331-3.117
			c-0.28-1.121-0.432-2.312-0.432-3.526c0-1.272,0.152-2.499,0.432-3.69c0.28-1.18,0.747-2.242,1.331-3.199
			c0.643-0.91,1.448-1.658,2.452-2.219c0.981-0.561,2.207-0.817,3.644-0.817c1.424,0,2.639,0.257,3.631,0.817
			c1.004,0.561,1.81,1.297,2.441,2.219c0.607,0.934,1.074,2.02,1.366,3.199c0.291,1.191,0.408,2.406,0.408,3.69
			C216.89,293.422,216.773,294.613,216.482,295.734z"/>
		<path d="M248.325,280.508c-0.782-0.865-1.81-1.554-3.083-2.079c-1.272-0.525-2.813-0.794-4.623-0.794h-13.032v28.9h6.353v-10.357
			h6.68c1.81,0,3.351-0.257,4.623-0.782c1.262-0.537,2.289-1.226,3.083-2.09s1.378-1.845,1.74-2.954
			c0.374-1.109,0.549-2.254,0.549-3.434c0-1.156-0.175-2.312-0.549-3.41C249.703,282.353,249.119,281.371,248.325,280.508z
			 M243.993,289.148c-0.315,0.561-0.712,0.98-1.226,1.308c-0.537,0.304-1.121,0.515-1.799,0.631
			c-0.677,0.093-1.378,0.163-2.102,0.163h-4.939v-8.688h4.939c0.724,0,1.425,0.07,2.102,0.188c0.678,0.104,1.262,0.291,1.799,0.642
			c0.49,0.292,0.91,0.759,1.226,1.296c0.315,0.584,0.468,1.309,0.468,2.23C244.46,287.817,244.308,288.576,243.993,289.148z"/>
		<path d="M381.771,159.813l-20.189-34.944l-3.469-22.368l-0.104-0.695l-19.676-17.218l-22.712-39.34l-38.103-13.86L260.983,16.92
			l-0.525-0.467l-25.397-0.525L191.323,0l-39.066,14.217l-21.404-0.444l-18.689,15.034L66.997,45.249L45.546,82.411L30.401,94.596
			l-0.555,0.456l-4.373,22.14L0.864,159.813l7.631,43.252l-3.649,18.473l-0.134,0.688l10.539,19.139l8.594,48.74l33.852,28.388
			l9.172,16.675l0.321,0.631l20.627,7.975l37.367,31.365h43.538l18.713,7.24l0.619,0.256l22.005-7.496h47.397l32.381-27.185
			l20.937-7.135l12.833-21.194l35.184-29.52l7.123-40.355l11.643-19.221l0.361-0.607l-3.982-25.654L381.771,159.813z M33.338,97.142
			l98.829-79.503l126.831,2.616l95.473,83.526l2.849,18.386H28.387v0.023L33.338,97.142z M314.324,198.978
			c1.413,1.635,3.41,2.475,6.049,2.475c1.88,0,3.504-0.572,4.857-1.705c1.355-1.121,2.195-2.289,2.499-3.562h8.198
			c-1.309,4.799-3.305,8.302-6.025,10.428c-2.732,2.16-6.003,3.234-9.879,3.234c-2.675,0-5.068-0.514-7.217-1.588
			c-2.148-1.04-3.982-2.511-5.465-4.391c-1.495-1.88-2.639-4.122-3.457-6.761c-0.794-2.592-1.202-5.488-1.202-8.624
			c0-3.03,0.408-5.862,1.249-8.466c0.829-2.633,2.009-4.893,3.527-6.808c1.541-1.909,3.362-3.404,5.511-4.519
			c2.103-1.098,4.461-1.635,7.054-1.635c2.896,0,5.395,0.654,7.555,1.997c2.148,1.337,3.912,3.141,5.289,5.377
			c1.355,2.236,2.371,4.811,2.99,7.712c0.607,2.873,0.829,5.885,0.653,9.027h-24.521
			C312.164,194.728,312.923,197.32,314.324,198.978z M296.972,152.672v56.067h-9.318v-56.067H296.972z M261.31,206.229
			l-11.957-38.085h9.983l7.672,27.797h0.14l7.428-27.797h9.656l-14.188,45.698c-1.016,3.258-2.429,5.593-4.215,7.019
			c-1.799,1.436-4.286,2.172-7.485,2.172c-0.981,0-1.915-0.047-2.861-0.094c-0.945-0.105-1.903-0.188-2.86-0.304v-9.179
			c0.863,0.094,1.763,0.211,2.686,0.293c0.91,0.116,1.845,0.151,2.756,0.093c0.794-0.093,1.459-0.409,2.008-0.899
			c0.537-0.491,0.946-1.109,1.215-1.845c0.257-0.724,0.396-1.518,0.396-2.359C261.683,207.841,261.555,207.012,261.31,206.229z
			 M242.767,199.492c0.514,0.607,1.564,0.958,3.164,0.958c1.039,0,2.009-0.14,2.885-0.351v8.735
			c-0.795,0.163-1.658,0.257-2.64,0.303c-0.957,0.059-1.892,0.082-2.825,0.082c-1.437,0-2.803-0.128-4.088-0.362
			c-1.296-0.233-2.429-0.677-3.409-1.401c-1.005-0.712-1.764-1.705-2.335-2.943c-0.572-1.261-0.842-2.919-0.842-4.951v-23.956
			h-5.675v-7.45h5.675v-12.173h9.318v12.173h6.82v7.45h-6.82v20.114C241.984,197.6,242.23,198.849,242.767,199.492z
			 M214.648,195.054c-0.479-0.584-1.19-1.133-2.078-1.611c-0.899-0.467-1.997-0.888-3.316-1.285
			c-1.308-0.409-2.803-0.806-4.461-1.226c-1.378-0.356-2.686-0.8-3.993-1.313c-1.285-0.479-2.429-1.133-3.433-1.938
			c-1.004-0.8-1.822-1.851-2.429-3.083c-0.607-1.232-0.934-2.727-0.934-4.508c0-2.586,0.443-4.7,1.284-6.399
			c0.853-1.699,1.985-3.024,3.375-4.005c1.413-0.958,2.989-1.652,4.729-2.032c1.751-0.379,3.55-0.595,5.395-0.595
			c1.845,0,3.62,0.216,5.348,0.619c1.729,0.42,3.27,1.15,4.624,2.131c1.366,0.992,2.499,2.33,3.387,3.981
			c0.899,1.635,1.437,3.731,1.611,6.23h-8.851c-0.14-2.154-0.829-3.614-2.055-4.355c-1.226-0.777-2.674-1.133-4.32-1.133
			c-0.526,0-1.098,0.023-1.705,0.117c-0.619,0.059-1.191,0.239-1.682,0.502c-0.502,0.251-0.946,0.636-1.284,1.138
			c-0.351,0.491-0.514,1.168-0.514,2.009c0,0.98,0.292,1.792,0.911,2.411c0.607,0.636,1.425,1.15,2.406,1.536
			c0.993,0.415,2.102,0.753,3.375,1.074c1.273,0.298,2.569,0.654,3.889,1.016c1.331,0.356,2.674,0.8,3.97,1.337
			c1.285,0.514,2.453,1.208,3.434,2.073c1.027,0.858,1.821,1.932,2.452,3.229c0.607,1.291,0.935,2.867,0.935,4.747
			c0,2.663-0.468,4.893-1.355,6.738c-0.898,1.787-2.078,3.246-3.525,4.355c-1.426,1.074-3.083,1.88-4.952,2.335
			c-1.857,0.467-3.749,0.712-5.687,0.712c-1.973,0-3.888-0.245-5.78-0.712c-1.88-0.455-3.55-1.261-5.021-2.394
			c-1.472-1.109-2.674-2.604-3.62-4.426c-0.935-1.81-1.472-4.099-1.53-6.761h8.863c0,1.215,0.21,2.254,0.631,3.13
			c0.42,0.864,0.957,1.553,1.611,2.113c0.666,0.537,1.425,0.958,2.266,1.203c0.84,0.269,1.751,0.386,2.662,0.386
			c0.654,0,1.354-0.094,2.078-0.257c0.713-0.175,1.366-0.479,1.962-0.864c0.584-0.397,1.074-0.899,1.495-1.553
			c0.385-0.677,0.583-1.495,0.583-2.487C215.349,196.362,215.116,195.638,214.648,195.054z M160.041,175.676
			c0.432-1.244,1.027-2.412,1.769-3.492c0.742-1.074,1.606-1.973,2.558-2.75c0.958-0.753,1.997-1.337,3.124-1.757
			c1.121-0.403,2.248-0.619,3.369-0.619c0.707,0,1.39,0.117,2.05,0.379v10.369c-0.456-0.099-0.97-0.216-1.583-0.263
			c-0.607-0.099-1.22-0.123-1.781-0.123c-1.711,0-3.159,0.327-4.326,1.016c-1.174,0.694-2.143,1.617-2.861,2.779
			c-0.718,1.191-1.243,2.569-1.541,4.181c-0.31,1.594-0.467,3.293-0.467,5.056v18.286h-9.336v-40.595h8.88v7.532H160.041z
			 M134.356,161.879v-9.219h9.324v9.219H134.356z M143.669,168.156v40.595h-9.324v-40.595H143.669z M117.028,177.147
			c-0.321-0.73-0.753-1.255-1.313-1.652c-0.538-0.415-1.186-0.654-1.904-0.8c-0.742-0.117-1.506-0.181-2.33-0.181
			c-1.792,0-3.229,0.444-4.303,1.401c-1.08,0.922-1.699,2.511-1.88,4.723h-9.324c0.128-2.627,0.665-4.805,1.635-6.516
			c0.957-1.734,2.201-3.135,3.684-4.186c1.495-1.051,3.159-1.792,4.986-2.248c1.845-0.415,3.719-0.66,5.669-0.66
			c1.71,0,3.445,0.146,5.19,0.409c1.746,0.298,3.345,0.875,4.793,1.71s2.633,2.009,3.538,3.527c0.934,1.529,1.39,3.503,1.39,5.897
			v21.129c0,1.822,0.07,3.585,0.251,5.255c0.181,1.682,0.479,2.919,0.934,3.76h-9.458c-0.181-0.63-0.327-1.238-0.432-1.915
			c-0.111-0.63-0.193-1.284-0.228-1.973c-1.495,1.821-3.24,3.141-5.26,3.888c-2.021,0.748-4.081,1.133-6.172,1.133
			c-1.623,0-3.146-0.245-4.542-0.759c-1.413-0.514-2.633-1.25-3.685-2.242c-1.039-0.993-1.862-2.242-2.464-3.76
			c-0.595-1.518-0.881-3.316-0.881-5.406c0-2.3,0.321-4.215,0.993-5.71c0.654-1.5,1.518-2.674,2.627-3.562
			c1.086-0.894,2.33-1.553,3.708-2.009c1.378-0.443,2.785-0.8,4.244-1.074c1.437-0.239,2.82-0.479,4.14-0.636
			c1.314-0.14,2.487-0.379,3.503-0.689c1.028-0.327,1.851-0.765,2.475-1.366c0.607-0.631,0.905-1.495,0.905-2.645
			C117.518,178.8,117.355,177.842,117.028,177.147z M58.987,184.574v24.166H48.658v-56.067h10.329v21.521h18.981v-21.521h10.329
			v56.067H77.968v-24.166H58.987z M308.24,337.655l-120.087,40.917L69.881,332.728l-49.768-90.463H365.96l7.952-13.137
			L308.24,337.655z"/>
		<polygon points="238.657,44.168 240.805,39.183 190.027,62.63 196.362,66.781 		"/>
		<path d="M131.332,98.374c2.75,2.855,7.077,3.79,11.216,2.715c1.804-0.386,3.643-1.104,4.974-2.371
			c2.189-1.646,3.79-3.836,4.647-6.3c0.502-1.588,0.66-3.159,0.456-4.688l-0.141-0.444l32.106-13.201l-5.494-4.887L150.628,82.89
			l-0.082-0.239c-0.158-0.204-0.31-0.397-0.479-0.572c-3.603-3.736-9.925-4.25-14.958-1.208c-2.82,1.711-4.893,4.221-5.874,7.146
			c-1.027,2.989-0.765,6.055,0.765,8.6C130.386,97.224,130.842,97.813,131.332,98.374z M132.383,89.073
			c0.753-2.166,2.294-4.069,4.425-5.36c3.743-2.224,8.308-1.973,10.831,0.672c0.351,0.344,0.648,0.753,0.888,1.144
			c1.027,1.699,1.197,3.766,0.502,5.815c-0.753,2.189-2.306,4.087-4.449,5.342c-3.754,2.248-8.296,1.973-10.836-0.643
			c-0.345-0.338-0.607-0.747-0.882-1.126C131.87,93.218,131.688,91.151,132.383,89.073z"/>
		<path d="M191.166,76.993l5.43-2.581L218,82.639c-0.596,1.267-0.888,2.738-0.934,4.303c-0.047,3.071,1.121,6.16,3.188,8.693
			c3.795,4.507,9.891,6.107,14.479,3.79c0.677-0.31,1.284-0.742,1.856-1.22c1.25-1.028,2.207-2.365,2.814-3.895
			c2.873-3.316,8.291-1.892,9.517-2.038c1.227-0.117,2.301-2.604,1.623-3.001c-0.618-0.368-9.097,0.076-11.21-3.538
			c-0.537-1.437-1.319-2.809-2.347-4.017c-3.772-4.554-9.891-6.16-14.503-3.812c-0.105,0.047-0.246,0.117-0.362,0.216
			l-27.336-10.288l-46.51-29.28l1.267,4.542L191.166,76.993z M222.752,81.669c0.373-0.297,0.794-0.561,1.226-0.788
			c3.258-1.641,7.695-0.385,10.451,2.937c1.6,1.938,2.452,4.239,2.405,6.521c-0.022,2.201-0.853,4.11-2.358,5.366
			c-0.362,0.286-0.747,0.561-1.191,0.765c-3.246,1.652-7.672,0.397-10.463-2.989c-1.588-1.874-2.475-4.198-2.429-6.493
			C220.417,84.811,221.257,82.937,222.752,81.669z M190.915,69.759c0.882-0.42,1.921-0.07,2.341,0.777
			c0.456,0.823,0.093,1.88-0.771,2.341c-0.875,0.397-1.944,0.076-2.335-0.771C189.764,71.253,190.068,70.203,190.915,69.759z"/>
		<path d="M114.149,190.454c-0.694,0.146-1.401,0.292-2.166,0.385c-0.776,0.117-1.506,0.251-2.213,0.385
			c-0.729,0.187-1.436,0.397-2.09,0.631c-0.66,0.257-1.244,0.63-1.746,1.074c-0.514,0.455-0.922,1.016-1.22,1.74
			c-0.31,0.689-0.467,1.553-0.467,2.534c0,1.051,0.146,1.915,0.467,2.546c0.298,0.654,0.718,1.191,1.243,1.576
			c0.537,0.397,1.145,0.666,1.851,0.841c0.695,0.152,1.424,0.21,2.166,0.21c1.839,0,3.252-0.362,4.256-1.074
			c1.016-0.759,1.758-1.612,2.248-2.627c0.479-1.051,0.776-2.079,0.876-3.129c0.116-1.028,0.163-1.869,0.163-2.499v-4.192
			c-0.391,0.444-0.882,0.753-1.483,0.981C115.451,190.085,114.815,190.302,114.149,190.454z"/>
		<path d="M319.777,175.448c-1.494,0-2.744,0.292-3.725,0.899c-0.98,0.619-1.752,1.36-2.359,2.248
			c-0.606,0.882-0.992,1.839-1.237,2.832c-0.245,0.981-0.374,1.88-0.42,2.656h15.18c-0.443-2.796-1.237-4.951-2.335-6.422
			C323.748,176.19,322.054,175.448,319.777,175.448z"/>
		<rect x="62.338" y="287.863" width="65.479" height="3.492"/>
		<rect x="258.321" y="287.863" width="65.462" height="3.492"/>
	</g>
</g>
</svg>