<?xml version="1.0" encoding="iso-8859-1"?>
<!-- Uploaded to: SVG Repo, www.svgrepo.com, Generator: SVG Repo Mixer Tools -->
<!DOCTYPE svg PUBLIC "-//W3C//DTD SVG 1.1//EN" "http://www.w3.org/Graphics/SVG/1.1/DTD/svg11.dtd">
<svg fill="#ffffff" version="1.1" id="Capa_1" xmlns="http://www.w3.org/2000/svg" xmlns:xlink="http://www.w3.org/1999/xlink" 
	 width="800px" height="800px" viewBox="0 0 31.154 31.154"
	 xml:space="preserve">
<g>
	<path d="M17.226,10.714c-0.306,0.135-0.457,0.954,0.167,1.121c-1.143,1.579-2.258,8.35-2.258,8.35s-0.668,4.588,0.804,5.673
		c1.472,1.085,1.703,5.296,1.703,5.296s0.81-3.157-0.208-4.818c-1.018-1.662-0.25-7.562-0.25-7.562s2.95-3.282,1.164-7.104
		c0.332-0.049,0.499-0.374,0.374-0.831c2.077-0.83,4.113-5.359,0.333-9.555c-0.874-0.998-4.737-2.826-7.771,1.245
		c-3.033,4.071,0.021,7.936,1.329,8.517c-0.107,0.162-0.457,0.519,0.125,0.748c-1.828,0.789,0.167,4.423,0.167,4.423
		s1.475,1.495,0.956,6.545c-0.52,5.048,1.667,7.58,2.309,7.894c-1.292-1.556-0.896-6.606-0.896-6.606s-0.127-6.671-0.291-8.101
		s-0.208-3.178-1.039-4.071c0.337-0.157,0.187-0.706-0.104-0.935c0.145-0.416-0.218-0.646-0.218-0.646s-1.85-0.674-1.507-5.4
		c0.488-0.914,2.046-0.488,3.864-0.956c1.87,0.26,2.514,0.291,3.282,1.247C19.771,10.174,17.226,10.714,17.226,10.714"/>
</g>
</svg>