<?xml version="1.0" encoding="iso-8859-1"?>
<!-- Uploaded to: SVG Repo, www.svgrepo.com, Generator: SVG Repo Mixer Tools -->
<!DOCTYPE svg PUBLIC "-//W3C//DTD SVG 1.1//EN" "http://www.w3.org/Graphics/SVG/1.1/DTD/svg11.dtd">
<svg fill="#ffffff" version="1.1" id="Capa_1" xmlns="http://www.w3.org/2000/svg" xmlns:xlink="http://www.w3.org/1999/xlink" 
	 width="800px" height="800px" viewBox="0 0 571.138 571.138"
	 xml:space="preserve">
<g>
	<path d="M376.355,88.817c-25.107-39.868-127.718,61.296-129.933,82.69s15.492,41.332,25.09,104.834
		c9.599,63.511-50.948,216.32-112.218,219.999c-5.179-1.464,62.02-75.288,62.02-75.288S80.292,584.95,70.712,570.199
		c12.563-14.786,26.59-54.645,26.59-54.645s-33.975,28.036-35.439,4.429c15.5-4.429,112.218-138.826,112.218-138.826
		s-56.85,53.895-67.913,32.501c23.626-10.321,94.485-193.435,94.485-193.435S103.186,371.584,66.265,349.477
		c24.376-17,55.377-63.877,55.377-63.877s-61.627,48.627-68.833,20.072c17.152-4.947,103.539-83.95,103.539-83.95
		s-87.851,49.466-95.967,25.108c25.108,0.75,42.805-19.224,42.805-19.224S59.649,235,64.801,212.856
		c28.055,5.17,95.235-15.509,95.235-15.509s-44.305,1.5-36.188-21.394c20.688,8.848,74.556-44.323,90.083-65.011
		C229.458,90.299,247.887-16.035,357.177,2.064c82.663-3.322,118.111,107.414,118.111,107.414s25.108,18.474,42.823,4.429
		c4.428,45.037-60.557,17.724-60.557,17.724s-12.5,41.216-7.375,51.671c5.143,10.456,6.643,27.323,35.447,19.224
		c-5.16,30.242-39.876,22.144-39.876,22.144s11.821,115.896,51.681,143.22C446.501,398.157,431,302.19,431,302.19
		s-28.072,77.502-57.59,96.717c-29.52,19.18-8.697,36.823-44.306,60.557c-35.573,23.715-73.833,80.449-119.602,79.699
		c24.375-11.055,66.458-73.807,66.458-73.807s-31.751,19.18-29.537-2.965c14.76-1.464,128.433-117.86,132.897-160.201
		C383.785,259.831,401.464,128.702,376.355,88.817z"/>
</g>
</svg>