<?xml version="1.0" encoding="iso-8859-1"?>
<!-- Uploaded to: SVG Repo, www.svgrepo.com, Generator: SVG Repo Mixer Tools -->
<!DOCTYPE svg PUBLIC "-//W3C//DTD SVG 1.1//EN" "http://www.w3.org/Graphics/SVG/1.1/DTD/svg11.dtd">
<svg fill="#000000" version="1.1" id="Capa_1" xmlns="http://www.w3.org/2000/svg" xmlns:xlink="http://www.w3.org/1999/xlink" 
	 width="800px" height="800px" viewBox="0 0 31.903 31.903"
	 xml:space="preserve">
<g>
	<g>
		<path d="M8.939,9.682c1.195-0.921,5.024-3.752,7.547-4.254c1.398-0.277,2.699-0.229,3.699-0.101
			c-0.905-1.937-1.937-4.999-3.232-5.266c-1.725-0.354-1.638,0.944-3.881,1.365c-3.247,0.66-4.985,2.503-4.606,5.059
			C8.673,7.888,8.834,8.974,8.939,9.682z"/>
		<path d="M26.375,7.956c-0.456-1.421-4.211-0.203-5.327-1.218c-0.129-0.116-0.26-0.296-0.392-0.512
			c-0.973-0.176-2.438-0.314-4.012-0.003c-2.764,0.55-7.523,4.345-7.57,4.384l-0.008-0.01c-0.074,0.04-2.045,1.087-3.188,2.33
			c-1.168,1.27,0.506,3.451,2.892,1.776c0.088-0.062,0.171-0.112,0.259-0.171c-0.598,1.505-2.1,5.039-3.388,5.937
			c1.134,0.383,3.281-3.721,3.281-3.721s-1.984,5.053-2.976,5.685c0.863,0.911,3.855-6.292,3.855-6.292s-2.301,6.73-3.315,7.982
			c0.702,0.146,3.315-4.432,3.315-4.432S7.007,25.61,6.25,25.918c0.339,0.811,1.472-1.523,1.472-1.523S7.464,27.52,6.42,28.235
			c0.913,0.017,1.556-1.54,1.556-1.54s-0.563,3.026-2.164,3.484c1.081,1.047,1.91-1.049,1.91-1.049s-0.592,2.062,0.354,2.231
			c-0.27-1.454,0.846-4.262,0.846-4.262s-0.405,4.601,0.88,4.803c-0.574-1.521,0.913-2.47,0.913-2.47s0.238,2.199,0.88,2.1
			c-0.372-1.084,0.574-5.447,1.015-6.26c0,0,0.203-1.521,0.677-2.841c0.473-1.32,0.404-4.839,0.338-6.326
			c-0.054-1.184-1.091-2.814-1.514-3.432c0.287-0.221,0.491-0.445,0.565-0.711c1.041-5.199,6.479-4.184,8.047-3.775
			c-0.166,1.445-0.824,7.156-0.942,7.716c-0.136,0.643-2.518,1.488-3.829,2.198c-1.313,0.711-2.023,3.416-2.023,3.416
			s1.555-1.995,2.335-2.502c0.777-0.509,1.86-0.542,1.86-0.542s-3.585,2.47-3.722,3.044c0.813-0.406,0.98,0.136,0.98,0.136
			s-1.444,1.786-1.711,2.471c-0.266,0.684-0.656,1.147-0.79,2.027c-0.137,0.881-1.049,4.061,0,4.635
			c0.034-2.808,1.184-3.99,1.184-3.99s1.149,1.285-0.644,3.18c0.98,0.406,3.01-3.383,3.01-3.383s0.44,2.062-0.912,3.754
			c1.387,0.137,3.179-4.6,3.179-4.6s0.557,1.445-1.184,3.213c0.98,0.102,1.657-1.15,2.029-2.367
			c0.371-1.219-0.236-4.465,0.034-5.242c0.27-0.779,1.081-1.253,1.589-2.301c0.433-0.893,0.422-3.963,0.725-5.545l0.021,0.133
			C21.912,13.639,26.833,9.376,26.375,7.956z"/>
	</g>
</g>
</svg>