<?xml version="1.0" encoding="iso-8859-1"?>
<!-- Uploaded to: SVG Repo, www.svgrepo.com, Generator: SVG Repo Mixer Tools -->
<!DOCTYPE svg PUBLIC "-//W3C//DTD SVG 1.1//EN" "http://www.w3.org/Graphics/SVG/1.1/DTD/svg11.dtd">
<svg fill="#000000" version="1.1" id="Capa_1" xmlns="http://www.w3.org/2000/svg" xmlns:xlink="http://www.w3.org/1999/xlink" 
	 width="800px" height="800px" viewBox="0 0 32.439 32.439"
	 xml:space="preserve">
<g>
	<path d="M16.977,24.209c-0.342-0.307-0.734-0.529-1.155-0.677l1.994-7.005l0.524-0.122c0,0,13.814-1.547,13.545-8
		c-0.331-0.444-12.238,4.35-12.238,4.35l-0.844,0.299l0.16-0.563c0,0,4.03-12.188,3.566-12.491
		c-6.458,0.141-7.125,14.025-7.125,14.025l-0.042,0.249L8.797,16.6c-0.14-0.194-0.298-0.377-0.481-0.543
		c-1.666-1.497-4.5-1.068-6.317,0.955c-1.817,2.022-1.941,4.885-0.275,6.383c1.666,1.496,4.5,1.067,6.317-0.955
		c1.063-1.185,1.542-2.654,1.427-3.972l5.405-1.257l-1.028,6.16c-1.134,0.179-2.285,0.789-3.186,1.791
		c-1.817,2.023-1.94,4.887-0.274,6.384s4.5,1.068,6.317-0.955C18.519,28.568,18.642,25.706,16.977,24.209z M7.071,21.568
		c-1.337,1.488-3.345,1.871-4.475,0.855s-0.963-3.053,0.374-4.541c1.336-1.486,3.344-1.871,4.475-0.855
		C8.575,18.043,8.407,20.08,7.071,21.568z M16.709,15.688c-0.377-0.338-0.408-0.919-0.069-1.296
		c0.338-0.376,0.918-0.407,1.295-0.069c0.378,0.338,0.408,0.919,0.07,1.295C17.666,15.996,17.086,16.025,16.709,15.688z
		 M11.257,30.576c-1.131-1.016-0.964-3.053,0.373-4.541s3.344-1.871,4.475-0.855c1.131,1.017,0.963,3.053-0.374,4.541
		C14.394,31.208,12.387,31.592,11.257,30.576z"/>
</g>
</svg>